<?xml version="1.0" encoding="UTF-8"?>
<svg id="Capa_1" data-name="Capa 1" xmlns="http://www.w3.org/2000/svg" viewBox="0 0 330.21 61.96">
  <defs>
    <style>
      .cls-1 {
        letter-spacing: 0em;
      }

      .cls-2 {
        letter-spacing: 0em;
      }

      .cls-3 {
        letter-spacing: -.01em;
      }

      .cls-4 {
        letter-spacing: -.03em;
      }

      .cls-5 {
        font-family: RalewayRoman-ExtraBold, Raleway;
        font-size: 15.27px;
        font-variation-settings: 'wght' 800;
        font-weight: 700;
      }

      .cls-5, .cls-6 {
        fill: #0d2149;
      }

      .cls-6, .cls-7, .cls-8 {
        stroke-width: 0px;
      }

      .cls-9 {
        letter-spacing: 0em;
      }

      .cls-7 {
        fill: #13264e;
      }

      .cls-10 {
        letter-spacing: 0em;
      }

      .cls-11 {
        letter-spacing: -.02em;
      }

      .cls-12 {
        letter-spacing: -.09em;
      }

      .cls-13 {
        letter-spacing: -.01em;
      }

      .cls-8 {
        fill: #cad2f1;
      }
    </style>
  </defs>
  <path class="cls-6" d="M236.77,33.16c-.05-1.64,1.68-2.87,3.13-2.09,1.94,1.05.59,3.92.91,6,.26,1.71.49,3.78-.93,4.46-1.34.65-2.88-.48-2.94-1.96-.08-2.2-.1-4.24-.17-6.42Z"/>
  <path class="cls-6" d="M290.73,60.96h-15.87c-2.52-.21-3.34-.23-5.7-.31-1.43-.05-6.35-.72-9.74-1.34-5.82-1.07-14.33-5.21-16.27-14.59-1.26-6.09-1.28-12.45-.34-18.55,1.67-10.93,13.32-22.01,24.49-23.86,9.59-1.58,19.25-1.72,28.86-.03,16.14,2.84,28.12,20.16,25.46,36.7-2.01,12.5-6.85,18.68-16.34,20.23-3.79.62-5.57.67-9.39,1.34-1.67.29-3.52.25-5.15.41Z"/>
  <path class="cls-8" d="M281.58,23.21c7.56.3,15.09.47,22.54,2.12,3.73.82,5.28,2.92,5.69,6.4,1.39,11.99-2.86,17.95-14.86,20.03-10.66,1.85-21.36,2-31.83-1.2-8.43-2.57-13.25-14.38-9.2-22.12,1.08-2.06,3.06-2.73,5.17-3.13,2.58-.5,5.15-1.19,7.76-1.4,4.9-.39,9.83-.48,14.74-.7Z"/>
  <text class="cls-5" transform="translate(69.73 26.54)"><tspan x="0" y="0">©2024</tspan><tspan class="cls-4" x="48.8" y="0"> </tspan><tspan class="cls-9" x="51.9" y="0">A</tspan><tspan x="62" y="0">u</tspan><tspan class="cls-10" x="71.57" y="0">r</tspan><tspan x="77.62" y="0">o</tspan><tspan class="cls-2" x="86.93" y="0">r</tspan><tspan x="92.98" y="0">a</tspan><tspan class="cls-4" x="101.92" y="0"> </tspan><tspan class="cls-13" x="105.02" y="0">A</tspan><tspan class="cls-1" x="115.03" y="0">d</tspan><tspan x="124.97" y="0">vise</tspan><tspan class="cls-11" x="154.39" y="0">r</tspan><tspan x="160.18" y="0"> </tspan><tspan class="cls-12" x="-68.53" y="18.32">T</tspan><tspan x="-60.45" y="18.32">odos los de</tspan><tspan class="cls-2" x="24.1" y="18.32">r</tspan><tspan x="30.14" y="18.32">echos </tspan><tspan class="cls-10" x="77.88" y="18.32">r</tspan><tspan x="83.92" y="18.32">eser</tspan><tspan class="cls-3" x="116.06" y="18.32">v</tspan><tspan x="124.34" y="18.32">ados</tspan></text>
  <path class="cls-6" d="M327.21,33.16c.05-1.64-1.68-2.87-3.13-2.09-1.94,1.05-.59,3.92-.91,6-.26,1.71-.49,3.78.93,4.46,1.34.65,2.88-.48,2.94-1.96.08-2.2.1-4.24.17-6.42Z"/>
  <circle class="cls-7" cx="262.11" cy="35.67" r="4.84"/>
  <circle class="cls-7" cx="300.41" cy="35.67" r="4.84"/>
</svg>